<?xml version="1.0" encoding="utf-8"?>
<!-- Generator: Adobe Illustrator 25.0.0, SVG Export Plug-In . SVG Version: 6.00 Build 0)  -->
<svg version="1.1" id="Layer_1" xmlns="http://www.w3.org/2000/svg" xmlns:xlink="http://www.w3.org/1999/xlink" x="0px" y="0px"
	 viewBox="0 0 20 20" style="enable-background:new 0 0 20 20;" xml:space="preserve">
<style type="text/css">
	.st0{fill:#020202;}
	.st1{fill:#FFFFFF;}
</style>
<circle class="st0" cx="10" cy="10" r="10"/>
<g>
	<path class="st1" d="M9.79,11.23c0-0.36,0.09-0.66,0.27-0.9c0.18-0.24,0.45-0.5,0.8-0.79c0.34-0.27,0.59-0.52,0.76-0.75
		c0.17-0.23,0.26-0.51,0.26-0.83s-0.1-0.63-0.31-0.92S10.97,6.6,10.41,6.6c-0.66,0-1.11,0.17-1.34,0.5
		C8.83,7.44,8.72,7.81,8.72,8.23l0.01,0.32H7.66C7.64,8.36,7.63,8.22,7.63,8.13c0-0.46,0.11-0.88,0.32-1.25
		c0.21-0.37,0.53-0.66,0.97-0.88c0.43-0.22,0.96-0.32,1.58-0.32c0.73,0,1.32,0.19,1.78,0.58c0.46,0.39,0.69,0.91,0.69,1.55
		c0,0.42-0.06,0.78-0.19,1.07s-0.27,0.53-0.44,0.71s-0.39,0.37-0.67,0.58c-0.29,0.23-0.5,0.43-0.64,0.59
		c-0.14,0.16-0.2,0.37-0.2,0.63v0.49H9.79V11.23z M9.7,12.76h1.2v1.3H9.7V12.76z"/>
</g>
</svg>
