<?xml version="1.0" encoding="utf-8"?>
<!-- Generator: Adobe Illustrator 25.0.0, SVG Export Plug-In . SVG Version: 6.00 Build 0)  -->
<svg version="1.1" id="Capa_1" xmlns="http://www.w3.org/2000/svg" xmlns:xlink="http://www.w3.org/1999/xlink" x="0px" y="0px"
	 viewBox="0 0 40 40" style="enable-background:new 0 0 40 40;" xml:space="preserve">
<style type="text/css">
	.st0{fill:url(#SVGID_1_);}
	.st1{fill:#FFFFFF;}
</style>
<g>
	<linearGradient id="SVGID_1_" gradientUnits="userSpaceOnUse" x1="0.342" y1="40.6122" x2="39.3723" y2="-0.3126">
		<stop  offset="0" style="stop-color:#FFDD55"/>
		<stop  offset="0.5" style="stop-color:#FF543E"/>
		<stop  offset="1" style="stop-color:#C837AB"/>
	</linearGradient>
	<rect class="st0" width="40" height="40"/>
	<path class="st1" d="M20,9.62c-4.25,0-8.29-0.38-9.83,3.58c-0.64,1.64-0.54,3.76-0.54,6.8c0,2.67-0.09,5.18,0.54,6.8
		c1.54,3.96,5.61,3.58,9.83,3.58c4.07,0,8.27,0.42,9.83-3.58c0.64-1.65,0.54-3.74,0.54-6.8c0-4.05,0.22-6.67-1.74-8.64
		C26.64,9.37,23.95,9.62,20,9.62L20,9.62z M19.07,11.49c8.87-0.01,10-1,9.38,12.7c-0.22,4.85-3.91,4.31-8.45,4.31
		c-8.27,0-8.51-0.24-8.51-8.51C11.49,11.63,12.15,11.49,19.07,11.49L19.07,11.49z M25.54,13.21c-0.69,0-1.25,0.56-1.25,1.25
		s0.56,1.25,1.25,1.25c0.69,0,1.25-0.56,1.25-1.25S26.23,13.21,25.54,13.21z M20,14.67c-2.94,0-5.33,2.39-5.33,5.33
		s2.39,5.33,5.33,5.33s5.33-2.39,5.33-5.33S22.94,14.67,20,14.67L20,14.67z M20,16.54c4.57,0,4.58,6.92,0,6.92
		C15.43,23.46,15.42,16.54,20,16.54z"/>
</g>
</svg>
