<?xml version="1.0" encoding="utf-8"?>
<!-- Generator: Adobe Illustrator 25.0.0, SVG Export Plug-In . SVG Version: 6.00 Build 0)  -->
<svg version="1.1" id="Layer_1" xmlns="http://www.w3.org/2000/svg" xmlns:xlink="http://www.w3.org/1999/xlink" x="0px" y="0px"
	 viewBox="0 0 46 46" style="enable-background:new 0 0 46 46;" xml:space="preserve">
<style type="text/css">
	.st0{fill:#001E36;}
	.st1{fill:#31A8FF;}
</style>
<g>
	<rect class="st0" width="46" height="46"/>
	<g>
		<path class="st1" d="M23.45,29.21c-2.66,0.02-5.33,0.01-7.99,0.01c-0.18,0-0.35,0-0.56,0c-0.01-0.26-0.03-0.46-0.03-0.67
			c0-5.03-0.01-10.06,0.01-15.09c0-0.44-0.13-0.57-0.56-0.56c-1.02,0.03-2.04,0.01-3.05,0.01c-0.59,0-0.6,0.01-0.6,0.61
			c0,2.93,0,5.87,0,8.8c0,3.38,0,6.76,0,10.15c0,0.35,0.04,0.59,0.5,0.59c3.92-0.01,7.84-0.01,11.76,0c0.32,0,0.46-0.12,0.5-0.42
			c0.15-0.97,0.31-1.95,0.49-2.92C23.99,29.32,23.86,29.21,23.45,29.21z"/>
		<path class="st1" d="M35.34,17.96c0.01-0.41-0.16-0.52-0.53-0.5c-1.04,0.05-2.02,0.31-2.88,0.9c-0.59,0.4-1.13,0.87-1.71,1.32
			c-0.08-0.47-0.15-0.94-0.25-1.41c-0.07-0.33-0.28-0.49-0.65-0.48c-0.97,0.02-1.95,0.02-2.92,0c-0.35-0.01-0.42,0.13-0.41,0.45
			c0.06,2.14,0.12,4.28,0.14,6.42c0.02,2.62,0.01,5.24,0,7.86c0,0.43,0.13,0.58,0.57,0.57c1.02-0.03,2.04-0.01,3.05-0.01
			c0.63,0,0.63,0,0.63-0.61c0-2.89,0.03-5.78-0.02-8.67c-0.01-0.7,0.26-1.08,0.84-1.35c1.16-0.56,2.38-0.81,3.65-0.78
			c0.36,0.01,0.5-0.09,0.5-0.47C35.32,20.12,35.32,19.04,35.34,17.96z"/>
	</g>
</g>
</svg>
