<?xml version="1.0" encoding="utf-8"?>
<!-- Generator: Adobe Illustrator 25.0.0, SVG Export Plug-In . SVG Version: 6.00 Build 0)  -->
<svg version="1.1" id="Layer_1" xmlns="http://www.w3.org/2000/svg" xmlns:xlink="http://www.w3.org/1999/xlink" x="0px" y="0px"
	 viewBox="0 0 120 120" style="enable-background:new 0 0 120 120;" xml:space="preserve">
<style type="text/css">
	.st0{fill:#E7A75B;}
	.st1{fill:#FFFFFF;}
</style>
<g>
	<polyline class="st0" points="0,120 0,0 120,0 	"/>
	<g>
		<path class="st1" d="M24.86,45.25l10.86,10.86l-2.06,2.06l-12.01-1.18l6.6,6.6l-2.48,2.48L14.9,55.21l2.08-2.08l12,1.2l-6.6-6.6
			L24.86,45.25z"/>
		<path class="st1" d="M46.25,41.55l2.02,2.02l-8.41,8.41L28.99,41.12l8.21-8.21l2.02,2.02l-5.71,5.71l2.36,2.36l5.04-5.04
			l1.96,1.96l-5.04,5.04l2.51,2.51L46.25,41.55z"/>
		<path class="st1" d="M57.22,12.89l7.31,14.42l-2.7,2.7l-9.74-4.97l4.89,9.82l-2.68,2.68l-14.43-7.29l2.61-2.61l10.09,5.18
			l-5.08-10.2l2.33-2.33l10.18,5.21l-5.17-10.23L57.22,12.89z"/>
	</g>
</g>
</svg>
