<?xml version="1.0" encoding="utf-8"?>
<!-- Generator: Adobe Illustrator 25.0.0, SVG Export Plug-In . SVG Version: 6.00 Build 0)  -->
<svg version="1.1" id="Layer_1" xmlns="http://www.w3.org/2000/svg" xmlns:xlink="http://www.w3.org/1999/xlink" x="0px" y="0px"
	 viewBox="0 0 18 18" style="enable-background:new 0 0 18 18;" xml:space="preserve">
<style type="text/css">
	.st0{opacity:0.5;}
</style>
<path class="st0" d="M16.56,4.31c-0.06-0.92-0.37-1.7-0.93-2.34C14.57,0.75,12.65,0.1,10.1,0.1C9.1,0.1,3.96,0,3.9,0
	c0,0-0.01,0-0.01,0C3.69,0,3.51,0.13,3.46,0.33L0.01,15.19c-0.03,0.13,0,0.26,0.09,0.36c0.08,0.1,0.21,0.16,0.35,0.16h2.29
	l-0.42,1.77c-0.03,0.13,0,0.26,0.09,0.36C2.48,17.94,2.61,18,2.75,18h5.77c0.21,0,0.4-0.15,0.44-0.35l0.72-3.63l2.7-0.02
	c0.01,0,0.03,0,0.04,0c0.05,0,4.58-0.5,5.49-5.59C18.29,6.21,17.43,4.98,16.56,4.31z M4.25,0.86c1.2,0.03,4.99,0.11,5.85,0.11
	c2.26,0,3.98,0.56,4.86,1.57c0.66,0.75,0.87,1.8,0.64,3.09c-0.82,4.6-4.63,5.16-4.98,5.19L7.4,10.85c0,0,0,0,0,0
	c-0.21,0-0.39,0.09-0.44,0.29l-0.77,3.71H1L4.25,0.86z M17.03,8.26c-0.77,4.33-4.36,4.84-4.68,4.88L9.3,13.17
	c-0.21,0-0.39,0.15-0.43,0.35l-0.72,3.63H3.3l0.34-1.44h2.91c0.21,0,0.39-0.14,0.44-0.34l0.77-3.77l2.88,0.02c0.01,0,0.03,0,0.04,0
	c0.05,0,4.84-0.5,5.79-5.88c0.02-0.09,0.03-0.18,0.04-0.26C17.06,6.17,17.23,7.1,17.03,8.26z"/>
</svg>
