<?xml version="1.0" encoding="utf-8"?>
<!-- Generator: Adobe Illustrator 25.0.0, SVG Export Plug-In . SVG Version: 6.00 Build 0)  -->
<svg version="1.1" id="Layer_1" xmlns="http://www.w3.org/2000/svg" xmlns:xlink="http://www.w3.org/1999/xlink" x="0px" y="0px"
	 viewBox="0 0 24 24" style="enable-background:new 0 0 24 24;" xml:space="preserve">
<style type="text/css">
	.st0{fill:none;stroke:#000000;stroke-linecap:round;stroke-linejoin:round;}
</style>
<path class="st0" d="M22,16.92v3c0,1.1-0.89,2-1.99,2.01c-0.06,0-0.13,0-0.19-0.01c-3.08-0.33-6.03-1.39-8.63-3.07
	c-2.42-1.54-4.46-3.58-6-6C3.5,10.24,2.45,7.27,2.12,4.18c-0.1-1.1,0.71-2.07,1.81-2.17C3.99,2,4.05,2,4.11,2h3
	c1-0.01,1.86,0.73,2,1.72c0.13,0.96,0.36,1.9,0.7,2.81c0.27,0.73,0.1,1.55-0.45,2.11L8.09,9.91c1.42,2.5,3.5,4.58,6,6l1.27-1.27
	c0.56-0.55,1.38-0.72,2.11-0.45c0.91,0.34,1.85,0.57,2.81,0.7C21.29,15.03,22.03,15.9,22,16.92z"/>
</svg>
