<?xml version="1.0" encoding="utf-8"?>
<!-- Generator: Adobe Illustrator 25.0.0, SVG Export Plug-In . SVG Version: 6.00 Build 0)  -->
<svg version="1.1" id="Layer_1" xmlns="http://www.w3.org/2000/svg" xmlns:xlink="http://www.w3.org/1999/xlink" x="0px" y="0px"
	 viewBox="0 0 46 46" style="enable-background:new 0 0 46 46;" xml:space="preserve">
<style type="text/css">
	.st0{fill:url(#SVGID_1_);}
	.st1{fill:#31C5F0;}
</style>
<radialGradient id="SVGID_1_" cx="-499.9193" cy="655.8196" r="0.0143" gradientTransform="matrix(2234.3835 0 0 2218.7549 1117027.25 -1455091.375)" gradientUnits="userSpaceOnUse">
	<stop  offset="0" style="stop-color:#34364E;stop-opacity:0.98"/>
	<stop  offset="1" style="stop-color:#0C0824"/>
</radialGradient>
<path class="st0" d="M1.91,1.96h42.16v42.09H1.91V1.96z"/>
<path class="st1" d="M1.91,1.96h42.16v42.09H1.91V1.96z M0.05,46h46V0h-46V46z M31.04,18.86c-1.52,0-2.03,0.81-2.03,1.44
	c0,0.69,0.34,1.21,2.37,2.3c2.99,1.49,3.95,2.93,3.95,5.06c0,3.16-2.31,4.83-5.47,4.83c-1.69,0-3.1-0.34-3.95-0.86
	c-0.11-0.06-0.17-0.17-0.17-0.29v-2.88c0-0.17,0.11-0.23,0.23-0.17c1.19,0.81,2.6,1.15,3.84,1.15c1.52,0,2.14-0.63,2.14-1.55
	c0-0.69-0.45-1.32-2.37-2.36c-2.71-1.32-3.84-2.7-3.84-4.94c0-2.53,1.92-4.66,5.31-4.66c1.64,0,2.82,0.23,3.44,0.58
	c0.17,0.11,0.17,0.23,0.17,0.4v2.64c0,0.17-0.11,0.23-0.28,0.17C33.52,19.21,32.28,18.86,31.04,18.86L31.04,18.86z M14.56,21.22
	c0.45,0.06,0.79,0.06,1.58,0.06c2.26,0,4.35-0.81,4.35-3.91c0-2.47-1.52-3.74-4.06-3.74c-0.79,0-1.47,0.06-1.86,0.06V21.22z
	 M11.11,10.75c0-0.12,0.28-0.23,0.4-0.23c1.24-0.06,3.05-0.12,4.97-0.12c5.31,0,7.39,2.99,7.39,6.79c0,5-3.5,7.13-7.85,7.13
	c-0.73,0-0.96-0.06-1.47-0.06v7.53c0,0.17-0.06,0.23-0.23,0.23h-2.93c-0.17,0-0.23-0.06-0.23-0.23L11.11,10.75L11.11,10.75z"/>
</svg>
