<?xml version="1.0" encoding="utf-8"?>
<!-- Generator: Adobe Illustrator 25.0.0, SVG Export Plug-In . SVG Version: 6.00 Build 0)  -->
<svg version="1.1" id="Capa_1" xmlns="http://www.w3.org/2000/svg" xmlns:xlink="http://www.w3.org/1999/xlink" x="0px" y="0px"
	 viewBox="0 0 40 40" style="enable-background:new 0 0 40 40;" xml:space="preserve">
<style type="text/css">
	.st0{fill:#50ABF1;}
	.st1{fill:#FFFFFF;}
</style>
<g>
	<rect x="0.07" y="0.1" class="st0" width="40" height="40"/>
	<path class="st1" d="M9.16,27.36c1.98,1.25,4.32,1.98,6.83,1.98c7.06,0,12.78-5.72,12.78-12.78c0-0.18,0-0.35-0.01-0.53
		c0.26-0.2,1.83-1.47,2.22-2.28c0,0-1.28,0.53-2.54,0.66c0,0-0.01,0-0.01,0c0,0,0,0,0.01,0c0.12-0.08,1.73-1.18,1.95-2.49
		c0,0-0.91,0.48-2.18,0.91c-0.21,0.07-0.43,0.14-0.66,0.2c-0.82-0.87-1.98-1.42-3.27-1.42c-2.48,0-4.49,2.01-4.49,4.48
		c0,0.35,0.04,0.69,0.12,1.02c-0.35-0.01-5.62-0.31-9.21-4.65c0,0-2.14,2.93,1.28,5.94c0,0-1.04-0.04-1.94-0.58
		c0,0-0.33,3.55,3.54,4.45c0,0-0.76,0.29-1.98,0.08c0,0,0.68,2.86,4.12,3.13C15.75,25.48,13.03,27.94,9.16,27.36L9.16,27.36z"/>
</g>
</svg>
